<svg xmlns="http://www.w3.org/2000/svg" viewBox="0 0 400 300" width="406" height="306" class="illustration styles_illustrationTablet__1DWOa"><g id="_218_iwatch_flatline" data-name="#218_iwatch_flatline"><circle cx="200" cy="152.11" r="106.41" fill="#fff"></circle><path d="M200,259A106.91,106.91,0,1,1,306.91,152.11,107,107,0,0,1,200,259ZM200,46.2A105.91,105.91,0,1,0,305.91,152.11,106,106,0,0,0,200,46.2Z" fill="#d1d3d4"></path><path d="M146.06,80.78s18.58-13,21.58-52c0,0,23.84-11.27,58.38,0,0,0,1.13,35.1,24.4,53.4Z" fill="#38d39f"></path><path d="M146.06,219.22s18.58,12.95,21.58,52c0,0,23.84,11.27,58.38,0,0,0,1.13-35.1,24.4-53.4Z" fill="#38d39f"></path><path d="M261.87,107.41h3a2.78,2.78,0,0,1,2.78,2.78v21.14a2.78,2.78,0,0,1-2.78,2.78h-3a0,0,0,0,1,0,0v-26.7A0,0,0,0,1,261.87,107.41Z" fill="#fff"></path><path d="M264.86,107.41a2.78,2.78,0,0,1,2.78,2.78v21.14a2.77,2.77,0,0,1-2.78,2.78h-3v-26.7h3m0-.91h-3a.91.91,0,0,0-.91.91v26.7a.92.92,0,0,0,.91.92h3a3.7,3.7,0,0,0,3.7-3.7V110.19a3.7,3.7,0,0,0-3.7-3.69Z" fill="#231f20"></path><path d="M265,110.23h2.63a0,0,0,0,1,0,0v3a0,0,0,0,1,0,0H265a1.26,1.26,0,0,1-1.26-1.26v-.48A1.26,1.26,0,0,1,265,110.23Z" fill="#d1d3d4"></path><path d="M265,116.25h2.63a0,0,0,0,1,0,0v3a0,0,0,0,1,0,0H265a1.26,1.26,0,0,1-1.26-1.26v-.48A1.26,1.26,0,0,1,265,116.25Z" fill="#d1d3d4"></path><path d="M265,122.27h2.63a0,0,0,0,1,0,0v3a0,0,0,0,1,0,0H265a1.26,1.26,0,0,1-1.26-1.26v-.48A1.26,1.26,0,0,1,265,122.27Z" fill="#d1d3d4"></path><path d="M265,128.29h2.63a0,0,0,0,1,0,0v3a0,0,0,0,1,0,0H265a1.26,1.26,0,0,1-1.26-1.26v-.48A1.26,1.26,0,0,1,265,128.29Z" fill="#d1d3d4"></path><rect x="132.36" y="77.78" width="129.52" height="148.66" rx="19.81" fill="#fff"></rect><path d="M242.06,226.9h-89.9a20.29,20.29,0,0,1-20.26-20.27v-109a20.29,20.29,0,0,1,20.26-20.27h89.9a20.29,20.29,0,0,1,20.27,20.27v109A20.29,20.29,0,0,1,242.06,226.9ZM152.16,78.23a19.38,19.38,0,0,0-19.35,19.36v109A19.37,19.37,0,0,0,152.16,226h89.9a19.38,19.38,0,0,0,19.36-19.35v-109a19.39,19.39,0,0,0-19.36-19.36Z" fill="#231f20"></path><rect x="140.85" y="87.53" width="112.52" height="129.15" rx="12.04" fill="#231f20"></rect><path d="M241.33,217.18H152.9a12.56,12.56,0,0,1-12.55-12.54V99.58A12.56,12.56,0,0,1,152.9,87h88.43a12.56,12.56,0,0,1,12.54,12.55V204.64A12.55,12.55,0,0,1,241.33,217.18ZM152.9,88a11.56,11.56,0,0,0-11.55,11.55V204.64a11.55,11.55,0,0,0,11.55,11.54h88.43a11.54,11.54,0,0,0,11.54-11.54V99.58A11.55,11.55,0,0,0,241.33,88Z" fill="#231f20"></path><circle cx="166.73" cy="198.81" r="4.69" fill="#38d39f"></circle><path d="M187,204a5.15,5.15,0,1,1,5.15-5.15A5.16,5.16,0,0,1,187,204Zm0-9.38a4.24,4.24,0,1,0,4.23,4.23A4.24,4.24,0,0,0,187,194.58Z" fill="#fff"></path><path d="M207.24,204a5.15,5.15,0,1,1,5.15-5.15A5.16,5.16,0,0,1,207.24,204Zm0-9.38a4.24,4.24,0,1,0,4.24,4.23A4.24,4.24,0,0,0,207.24,194.58Z" fill="#fff"></path><path d="M227.5,204a5.15,5.15,0,1,1,5.15-5.15A5.16,5.16,0,0,1,227.5,204Zm0-9.38a4.24,4.24,0,1,0,4.23,4.23A4.24,4.24,0,0,0,227.5,194.58Z" fill="#fff"></path><path d="M223.27,104.89H170.4a10.49,10.49,0,0,1-9.74-6.69l-3.39-8.81a.46.46,0,0,1,.85-.33l3.39,8.81a9.57,9.57,0,0,0,8.89,6.1h52.87a9.59,9.59,0,0,0,8.89-6.1l3.38-8.81a.46.46,0,0,1,.86.33L233,98.2A10.5,10.5,0,0,1,223.27,104.89Z" fill="#fff"></path><path d="M264.26,195.75l-2.39,1.39V157.37l2.39,1.38a2.73,2.73,0,0,1,1.37,2.37v32.27A2.73,2.73,0,0,1,264.26,195.75Z" fill="#fff"></path><path d="M261.87,197.59a.49.49,0,0,1-.23-.06.44.44,0,0,1-.22-.39V157.37a.45.45,0,0,1,.22-.4.47.47,0,0,1,.46,0l2.39,1.38a3.21,3.21,0,0,1,1.59,2.77v32.26a3.21,3.21,0,0,1-1.59,2.77l-2.39,1.38A.46.46,0,0,1,261.87,197.59Zm.46-39.43v38.18l1.7-1h0a2.3,2.3,0,0,0,1.14-2V161.12a2.31,2.31,0,0,0-1.14-2Z" fill="#231f20"></path><path d="M242.18,180.31H154.33a.46.46,0,0,1,0-.91h87.85a.46.46,0,1,1,0,.91Z" fill="#fff"></path></g></svg>